<?xml version="1.0" encoding="UTF-8" standalone="no"?>
<!-- Created with Inkscape (http://www.inkscape.org/) -->

<svg
   width="64"
   height="64"
   viewBox="0 0 16.933333 16.933334"
   version="1.1"
   id="svg5"
   inkscape:version="1.1.2 (0a00cf5339, 2022-02-04)"
   sodipodi:docname="annotate.svg"
   xmlns:inkscape="http://www.inkscape.org/namespaces/inkscape"
   xmlns:sodipodi="http://sodipodi.sourceforge.net/DTD/sodipodi-0.dtd"
   xmlns="http://www.w3.org/2000/svg"
   xmlns:svg="http://www.w3.org/2000/svg">
  <sodipodi:namedview
     id="namedview7"
     pagecolor="#ffffff"
     bordercolor="#666666"
     borderopacity="1.0"
     inkscape:pageshadow="2"
     inkscape:pageopacity="0.0"
     inkscape:pagecheckerboard="0"
     inkscape:document-units="px"
     showgrid="false"
     units="px"
     inkscape:zoom="2.8284272"
     inkscape:cx="-66.29126"
     inkscape:cy="98.464618"
     inkscape:window-width="1912"
     inkscape:window-height="1082"
     inkscape:window-x="244"
     inkscape:window-y="321"
     inkscape:window-maximized="0"
     inkscape:current-layer="layer1" />
  <defs
     id="defs2" />
  <g
     inkscape:label="Layer 1"
     inkscape:groupmode="layer"
     id="layer1">
    <path
       id="rect5629"
       style="color:#000000;fill:#ecc2f4;fill-opacity:1;stroke-width:1.48711;-inkscape-stroke:none"
       d="m 8.5801737,2.2670714 -5.578995,3.3383005 -0.00145,6.1801561 h 0.045523 l -0.00163,8.19e-4 0.084544,0.05353 0.012191,0.02078 0.011373,-0.0065 5.4337184,3.188331 5.5544769,-3.25704 0.01033,-6.2919438 z M 8.4533667,3.0333174 8.460611,5.2612603 5.6893801,6.8769541 3.8111899,5.7671995 Z M 8.7143143,3.042111 13.335255,5.7781828 11.417456,6.9210473 8.7215522,5.2708434 Z M 8.5833624,5.484975 11.182529,7.0736465 8.5681475,8.6242359 5.9340814,7.0367493 Z m 4.9241386,0.8425412 v 4.9929848 l -1.838459,-0.905877 0.0069,-2.9790286 z m -9.8753218,0.00161 1.7848868,1.0552023 -0.02676,2.9310965 -1.7581189,0.967534 z m 2.0458333,1.2245847 2.5771623,1.5507328 0.014469,2.7548033 -2.6184241,-1.540632 z m 5.7370095,0.052078 -0.0069,2.8176311 -2.5132919,1.439822 -0.012899,-2.7595976 z m -5.8987218,2.9333541 2.752555,1.622128 -0.00455,1.992809 -4.5427607,-2.625832 z m 6.0332418,0.101605 1.835209,0.908274 -4.4968839,2.617044 0.00612,-1.987219 z"
       sodipodi:nodetypes="ccccccccccccccccccccccccccccccccccccccccccccccccccccccccc" />
    <g
       id="rect1291">
      <path
         style="color:#000000;fill:none;stroke-width:0.165761;-inkscape-stroke:none"
         d="M 5.5941105,6.3432805 7.6039035,5.2219023 9.4201408,6.4662329 9.4135967,8.4693697 7.605895,9.7522293 5.5853285,8.4693697 Z m -0.00878,2.1260892 -1.483808,0.8626662 M 9.4135967,8.4693697 11.099766,9.3379095 M 7.6039035,5.2219023 7.5939134,3.3969198"
         id="path8079" />
    </g>
  </g>
</svg>
