<?xml version="1.0" encoding="UTF-8" standalone="no"?>
<svg
   version="1.1"
   x="0px"
   y="0px"
   viewBox="0 0 64 64"
   enable-background="new 0 0 110 110"
   xml:space="preserve"
   id="svg48"
   sodipodi:docname="menu.svg"
   width="64"
   height="64"
   inkscape:version="1.1.2 (0a00cf5339, 2022-02-04)"
   xmlns:inkscape="http://www.inkscape.org/namespaces/inkscape"
   xmlns:sodipodi="http://sodipodi.sourceforge.net/DTD/sodipodi-0.dtd"
   xmlns:xlink="http://www.w3.org/1999/xlink"
   xmlns="http://www.w3.org/2000/svg"
   xmlns:svg="http://www.w3.org/2000/svg"><defs
     id="defs52" /><sodipodi:namedview
     id="namedview50"
     pagecolor="#ffffff"
     bordercolor="#666666"
     borderopacity="1.0"
     inkscape:pageshadow="2"
     inkscape:pageopacity="0.0"
     inkscape:pagecheckerboard="0"
     showgrid="false"
     inkscape:zoom="11.313708"
     inkscape:cx="37.078912"
     inkscape:cy="6.8500969"
     inkscape:window-width="2490"
     inkscape:window-height="1376"
     inkscape:window-x="70"
     inkscape:window-y="27"
     inkscape:window-maximized="1"
     inkscape:current-layer="g7702" /><g
     id="g7702"
     transform="translate(0.0703125,2.1572265)"><path
       style="fill:none;fill-opacity:0.57770127;stroke:#84a4e1;stroke-width:2;stroke-miterlimit:4;stroke-dasharray:none;stroke-opacity:1"
       sodipodi:type="inkscape:offset"
       inkscape:radius="4.196312"
       inkscape:original="M 31.929688 15.105469 A 14.737595 14.737595 0 0 0 17.191406 29.84375 A 14.737595 14.737595 0 0 0 31.929688 44.580078 A 14.737595 14.737595 0 0 0 46.667969 29.84375 A 14.737595 14.737595 0 0 0 31.929688 15.105469 z "
       xlink:href="#path6713"
       id="path7047"
       d="m 31.929688,10.908203 c -4.95718,-2.31e-4 -9.883417,2.04162 -13.388672,5.546875 -3.505256,3.505255 -5.547106,8.431493 -5.546875,13.388672 4.26e-4,4.956761 2.041683,9.883945 5.546875,13.388672 3.505191,3.504727 8.43191,5.545153 13.388672,5.544922 4.95676,2.3e-4 9.88348,-2.040195 13.388671,-5.544922 3.505192,-3.504727 5.546449,-8.431911 5.546875,-13.388672 2.31e-4,-4.957179 -2.04162,-9.883417 -5.546875,-13.388672 -3.505255,-3.505255 -8.431492,-5.547106 -13.388671,-5.546875 z"
       inkscape:href="#path6713" /><circle
       style="fill:#5f94e4;fill-opacity:0.57770127;stroke:none;stroke-width:1.5"
       id="path6713"
       cx="31.929893"
       cy="29.842857"
       r="14.737595" /><g
       id="g7577"
       transform="translate(-0.24491101,0.37899036)"><path
         id="rect6737"
         style="fill:#ffffff;fill-opacity:1;stroke:none;stroke-width:1.5"
         d="m 26.027344,24.25 c -0.67267,0 -1.212891,0.542174 -1.212891,1.214844 0,0.672669 0.540221,1.21289 1.212891,1.21289 h 12.294922 c 0.672669,0 1.21289,-0.540221 1.21289,-1.21289 0,-0.67267 -0.540221,-1.214844 -1.21289,-1.214844 z m 0,4 c -0.67267,0 -1.212891,0.542174 -1.212891,1.214844 0,0.672669 0.540221,1.21289 1.212891,1.21289 h 12.294922 c 0.672669,0 1.21289,-0.540221 1.21289,-1.21289 0,-0.67267 -0.540221,-1.214844 -1.21289,-1.214844 z m 0,4 c -0.67267,0 -1.212891,0.542174 -1.212891,1.214844 0,0.672669 0.540221,1.21289 1.212891,1.21289 h 12.294922 c 0.672669,0 1.21289,-0.540221 1.21289,-1.21289 0,-0.67267 -0.540221,-1.214844 -1.21289,-1.214844 z" /></g></g></svg>
