<?xml version="1.0" encoding="UTF-8" standalone="no"?>
<svg
   version="1.1"
   x="0px"
   y="0px"
   viewBox="0 0 64 64"
   enable-background="new 0 0 110 110"
   xml:space="preserve"
   id="svg48"
   sodipodi:docname="rubiks.svg"
   width="64"
   height="64"
   inkscape:version="1.1.2 (0a00cf5339, 2022-02-04)"
   xmlns:inkscape="http://www.inkscape.org/namespaces/inkscape"
   xmlns:sodipodi="http://sodipodi.sourceforge.net/DTD/sodipodi-0.dtd"
   xmlns="http://www.w3.org/2000/svg"
   xmlns:svg="http://www.w3.org/2000/svg"><defs
     id="defs52" /><sodipodi:namedview
     id="namedview50"
     pagecolor="#ffffff"
     bordercolor="#666666"
     borderopacity="1.0"
     inkscape:pageshadow="2"
     inkscape:pageopacity="0.0"
     inkscape:pagecheckerboard="0"
     showgrid="false"
     inkscape:zoom="11.313709"
     inkscape:cx="17.545087"
     inkscape:cy="47.420348"
     inkscape:window-width="2490"
     inkscape:window-height="1376"
     inkscape:window-x="70"
     inkscape:window-y="27"
     inkscape:window-maximized="1"
     inkscape:current-layer="svg48" /><g
     id="g42"
     transform="matrix(0.45743288,0,0,0.45743288,6.8982385,6.8409535)"
     style="stroke:none"><polygon
       fill="none"
       points="69.866,32.522 80.982,38.944 69.93,45.367 58.813,38.944 "
       id="polygon26"
       style="stroke:none" /><path
       id="path18148"
       style="color:#000000;fill:#d885a6;stroke-width:0.457433;-inkscape-stroke:none"
       d="M 32.097656 7.9726562 L 11.814453 19.761719 L 11.316406 20.998047 L 11.316406 45.205078 L 32.001953 57.050781 L 52.6875 45.011719 L 52.6875 20.941406 L 52.1875 19.572266 L 32.097656 7.9726562 z M 32.101562 10.285156 L 37.042969 13.138672 L 32.134766 15.992188 L 27.191406 13.138672 L 32.101562 10.285156 z M 38.042969 13.714844 L 43.806641 17.042969 L 38.898438 19.896484 L 33.134766 16.568359 L 38.042969 13.714844 z M 26.193359 13.71875 L 31.136719 16.572266 L 25.314453 19.957031 L 20.369141 17.103516 L 26.193359 13.71875 z M 32.136719 17.148438 L 37.900391 20.476562 L 32.076172 23.861328 L 26.3125 20.533203 L 32.136719 17.148438 z M 44.806641 17.619141 L 50.466797 20.886719 L 45.46875 23.728516 L 45.486328 23.699219 L 39.896484 20.472656 L 44.806641 17.619141 z M 19.371094 17.681641 L 24.316406 20.537109 L 18.648438 23.832031 L 13.609375 21.03125 L 19.371094 17.681641 z M 38.898438 21.052734 L 44.496094 24.283203 L 38.609375 27.632812 L 33.074219 24.4375 L 38.898438 21.052734 z M 25.316406 21.113281 L 31.080078 24.439453 L 25.537109 27.662109 L 19.666016 24.398438 L 25.316406 21.113281 z M 50.6875 21.910156 L 50.6875 29.462891 L 45.861328 32.25 L 45.861328 24.65625 L 50.6875 21.910156 z M 13.316406 22.011719 L 18.261719 24.761719 L 18.261719 32.25 L 13.316406 29.394531 L 13.316406 22.011719 z M 32.078125 25.015625 L 37.603516 28.205078 L 32.123047 31.322266 L 26.552734 28.226562 L 32.078125 25.015625 z M 44.861328 25.224609 L 44.861328 32.826172 L 39.097656 36.154297 L 39.097656 28.503906 L 44.861328 25.224609 z M 19.261719 25.316406 L 25.025391 28.521484 L 25.025391 36.154297 L 19.261719 32.826172 L 19.261719 25.316406 z M 38.097656 29.074219 L 38.097656 36.732422 L 32.625 39.892578 L 32.625 32.1875 L 38.097656 29.074219 z M 26.025391 29.078125 L 31.498047 32.119141 L 31.498047 39.890625 L 26.025391 36.732422 L 26.025391 29.078125 z M 13.316406 30.550781 L 18.261719 33.404297 L 18.261719 40.25 L 13.316406 37.394531 L 13.316406 30.550781 z M 50.6875 30.619141 L 50.6875 37.462891 L 45.861328 40.25 L 45.861328 33.40625 L 50.6875 30.619141 z M 19.261719 33.982422 L 25.025391 37.310547 L 25.025391 44.154297 L 19.261719 40.826172 L 19.261719 33.982422 z M 44.861328 33.982422 L 44.861328 40.826172 L 39.097656 44.154297 L 39.097656 37.310547 L 44.861328 33.982422 z M 26.025391 37.886719 L 31.498047 41.046875 L 31.498047 47.890625 L 26.025391 44.732422 L 26.025391 37.886719 z M 38.097656 37.888672 L 38.097656 44.732422 L 32.625 47.892578 L 32.625 41.048828 L 38.097656 37.888672 z M 13.316406 38.550781 L 18.261719 41.404297 L 18.261719 46.876953 L 13.316406 44.044922 L 13.316406 38.550781 z M 50.6875 38.619141 L 50.6875 43.863281 L 45.861328 46.671875 L 45.861328 41.40625 L 50.6875 38.619141 z M 19.261719 41.982422 L 25.025391 45.310547 L 25.025391 50.75 L 19.261719 47.449219 L 19.261719 41.982422 z M 44.861328 41.982422 L 44.861328 47.253906 L 39.097656 50.607422 L 39.097656 45.310547 L 44.861328 41.982422 z M 26.025391 45.886719 L 31.498047 49.046875 L 31.498047 54.457031 L 26.025391 51.322266 L 26.025391 45.886719 z M 38.097656 45.888672 L 38.097656 51.189453 L 32.625 54.373047 L 32.625 49.048828 L 38.097656 45.888672 z "
       transform="matrix(2.1861131,0,0,2.1861131,-15.080329,-14.955098)" /></g></svg>
